<svg width="600" height="600" xmlns="http://www.w3.org/2000/svg">
 <!-- Background -->
  <rect width="100%" height="100%" fill="#f5f5f5"/>

  <!-- Nodes (Origins) -->
  <circle cx="100" cy="50" r="30" fill="#4CAF50" stroke="#2E7D32" stroke-width="2"/>
  <text x="100" y="55" font-size="12" text-anchor="middle" fill="white">Baltimore</text>

  <circle cx="100" cy="150" r="30" fill="#4CAF50" stroke="#2E7D32" stroke-width="2"/>
  <text x="100" y="155" font-size="12" text-anchor="middle" fill="white">Cheyenne</text>

  <circle cx="100" cy="250" r="30" fill="#4CAF50" stroke="#2E7D32" stroke-width="2"/>
  <text x="100" y="255" font-size="12" text-anchor="middle" fill="white">Salt Lake</text>

  <circle cx="100" cy="350" r="30" fill="#4CAF50" stroke="#2E7D32" stroke-width="2"/>
  <text x="100" y="355" font-size="12" text-anchor="middle" fill="white">Memphis</text>

  <circle cx="100" cy="450" r="30" fill="#4CAF50" stroke="#2E7D32" stroke-width="2"/>
  <text x="100" y="455" font-size="12" text-anchor="middle" fill="white">Wichita</text>

  <!-- Nodes (Destinations) -->
  <circle cx="500" cy="50" r="30" fill="#FF9800" stroke="#F57C00" stroke-width="2"/>
  <text x="500" y="55" font-size="12" text-anchor="middle" fill="white">Atlanta</text>

  <circle cx="500" cy="150" r="30" fill="#FF9800" stroke="#F57C00" stroke-width="2"/>
  <text x="500" y="155" font-size="12" text-anchor="middle" fill="white">Boston</text>

  <circle cx="500" cy="250" r="30" fill="#FF9800" stroke="#F57C00" stroke-width="2"/>
  <text x="500" y="255" font-size="12" text-anchor="middle" fill="white">Chicago</text>

  <circle cx="500" cy="350" r="30" fill="#FF9800" stroke="#F57C00" stroke-width="2"/>
  <text x="500" y="355" font-size="12" text-anchor="middle" fill="white">Denver</text>

  <circle cx="500" cy="450" r="30" fill="#FF9800" stroke="#F57C00" stroke-width="2"/>
  <text x="500" y="455" font-size="12" text-anchor="middle" fill="white">Omaha</text>

  <circle cx="500" cy="550" r="30" fill="#FF9800" stroke="#F57C00" stroke-width="2"/>
  <text x="500" y="555" font-size="12" text-anchor="middle" fill="white">Portland</text>

  <!-- Arrows and Costs -->
  <defs>
    <marker id="arrow" markerWidth="5" markerHeight="5" refX="6" refY="3" orient="auto" markerUnits="strokeWidth">
      <path d="M0,0 L0,6 L9,3 z" fill="#000"/>
    </marker>
  </defs>

  <!-- Baltimore connections -->
  <line x1="130" y1="50" x2="470" y2="50" stroke="#000" stroke-width="2" marker-end="url(#arrow)"/>
  

  <line x1="130" y1="50" x2="470" y2="150" stroke="#000" stroke-width="2" marker-end="url(#arrow)"/>
  

  <line x1="130" y1="50" x2="470" y2="250" stroke="#000" stroke-width="2" marker-end="url(#arrow)"/>
  <text x="300" y="180" font-size="12" text-anchor="middle" fill="#000">685</text>

  <line x1="130" y1="50" x2="470" y2="350" stroke="#000" stroke-width="2" marker-end="url(#arrow)"/>
  <text x="300" y="260" font-size="12" text-anchor="middle" fill="#000">1630</text>

  <line x1="130" y1="50" x2="470" y2="450" stroke="#000" stroke-width="2" marker-end="url(#arrow)"/>
  <text x="300" y="340" font-size="12" text-anchor="middle" fill="#000">1160</text>

  <line x1="130" y1="50" x2="470" y2="550" stroke="#000" stroke-width="2" marker-end="url(#arrow)"/>
  <text x="300" y="420" font-size="12" text-anchor="middle" fill="#000">2800</text>

  <!-- Cheyenne connections -->
  <line x1="130" y1="150" x2="470" y2="50" stroke="#000" stroke-width="2" marker-end="url(#arrow)"/>
  <text x="300" y="90" font-size="12" text-anchor="middle" fill="#000">1460</text>

  <line x1="130" y1="150" x2="470" y2="150" stroke="#000" stroke-width="2" marker-end="url(#arrow)"/>
  <text x="300" y="140" font-size="12" text-anchor="middle" fill="#000">1940</text>

  <line x1="130" y1="150" x2="470" y2="250" stroke="#000" stroke-width="2" marker-end="url(#arrow)"/>
  <text x="300" y="200" font-size="12" text-anchor="middle" fill="#000">970</text>

  <line x1="130" y1="150" x2="470" y2="350" stroke="#000" stroke-width="2" marker-end="url(#arrow)"/>
  <text x="300" y="280" font-size="12" text-anchor="middle" fill="#000">100</text>

  <line x1="130" y1="150" x2="470" y2="450" stroke="#000" stroke-width="2" marker-end="url(#arrow)"/>
  <text x="300" y="360" font-size="12" text-anchor="middle" fill="#000">495</text>

  <line x1="130" y1="150" x2="470" y2="550" stroke="#000" stroke-width="2" marker-end="url(#arrow)"/>
  <text x="300" y="440" font-size="12" text-anchor="middle" fill="#000">1200</text>

  <!-- Salt Lake connections -->
  <line x1="130" y1="250" x2="470" y2="50" stroke="#000" stroke-width="2" marker-end="url(#arrow)"/>
  <text x="300" y="150" font-size="12" text-anchor="middle" fill="#000">1925</text>

  <line x1="130" y1="250" x2="470" y2="150" stroke="#000" stroke-width="2" marker-end="url(#arrow)"/>
  <text x="300" y="180" font-size="12" text-anchor="middle" fill="#000">2400</text>

  <line x1="130" y1="250" x2="470" y2="250" stroke="#000" stroke-width="2" marker-end="url(#arrow)"/>

<line x1="130" y1="250" x2="470" y2="350" stroke="#000" stroke-width="2" marker-end="url(#arrow)"/>
<line x1="130" y1="250" x2="470" y2="450" stroke="#000" stroke-width="2" marker-end="url(#arrow)"/>
<line x1="130" y1="250" x2="470" y2="550" stroke="#000" stroke-width="2" marker-end="url(#arrow)"/>


<!-- Memphis connections -->
  <line x1="130" y1="350" x2="470" y2="50" stroke="#000" stroke-width="2" marker-end="url(#arrow)"/>
  <line x1="130" y1="350" x2="470" y2="150" stroke="#000" stroke-width="2" marker-end="url(#arrow)"/>
  <line x1="130" y1="350" x2="470" y2="250" stroke="#000" stroke-width="2" marker-end="url(#arrow)"/>
  <line x1="130" y1="350" x2="470" y2="350" stroke="#000" stroke-width="2" marker-end="url(#arrow)"/>
  <line x1="130" y1="350" x2="470" y2="450" stroke="#000" stroke-width="2" marker-end="url(#arrow)"/>
  <line x1="130" y1="350" x2="470" y2="550" stroke="#000" stroke-width="2" marker-end="url(#arrow)"/>

<!-- Wichita connections -->
<line x1="130" y1="450" x2="470" y2="50" stroke="#000" stroke-width="2" marker-end="url(#arrow)"/>
<line x1="130" y1="450" x2="470" y2="150" stroke="#000" stroke-width="2" marker-end="url(#arrow)"/>
<line x1="130" y1="450" x2="470" y2="250" stroke="#000" stroke-width="2" marker-end="url(#arrow)"/>
<line x1="130" y1="450" x2="470" y2="350" stroke="#000" stroke-width="2" marker-end="url(#arrow)"/>
<line x1="130" y1="450" x2="470" y2="450" stroke="#000" stroke-width="2" marker-end="url(#arrow)"/>
<line x1="130" y1="450" x2="470" y2="550" stroke="#000" stroke-width="2" marker-end="url(#arrow)"/>
</svg>