<svg width="600" height="400" xmlns="http://www.w3.org/2000/svg">
  <!-- Fábricas (origen) -->
  <circle cx="100" cy="150" r="30" stroke="black" stroke-width="2" fill="lightblue" />
  <text x="100" y="155" font-size="12" font-family="Arial" fill="black" text-anchor="middle">F1</text>

  <circle cx="100" cy="250" r="30" stroke="black" stroke-width="2" fill="lightblue" />
  <text x="100" y="255" font-size="12" font-family="Arial" fill="black" text-anchor="middle">F2</text>

  <!-- Clientes (destino) -->
  <circle cx="500" cy="100" r="20" stroke="black" stroke-width="2" fill="lightgreen" />
  <text x="500" y="105" font-size="12" font-family="Arial" fill="black" text-anchor="middle">C1</text>

  <circle cx="500" cy="200" r="20" stroke="black" stroke-width="2" fill="lightgreen" />
  <text x="500" y="205" font-size="12" font-family="Arial" fill="black" text-anchor="middle">C2</text>

  <circle cx="500" cy="300" r="20" stroke="black" stroke-width="2" fill="lightgreen" />
  <text x="500" y="305" font-size="12" font-family="Arial" fill="black" text-anchor="middle">C3</text>

  <!-- Rutas desde F1 -->
  <line x1="100" y1="150" x2="500" y2="100" stroke="gray" stroke-width="2" />
  <line x1="100" y1="150" x2="500" y2="200" stroke="gray" stroke-width="2" />
  <line x1="100" y1="150" x2="500" y2="300" stroke="gray" stroke-width="2" />

  <!-- Rutas desde F2 -->
  <line x1="100" y1="250" x2="500" y2="100" stroke="gray" stroke-width="2" />
  <line x1="100" y1="250" x2="500" y2="200" stroke="gray" stroke-width="2" />
  <line x1="100" y1="250" x2="500" y2="300" stroke="gray" stroke-width="2" />

  <!-- Etiquetas de costos -->
  <text x="280" y="80" font-size="12" font-family="Arial" fill="black">Costo: 10</text>
  <text x="280" y="130" font-size="12" font-family="Arial" fill="black">Costo: 15</text>
  <text x="280" y="180" font-size="12" font-family="Arial" fill="black">Costo: 20</text>
  <text x="280" y="220" font-size="12" font-family="Arial" fill="black">Costo: 12</text>
  <text x="280" y="270" font-size="12" font-family="Arial" fill="black">Costo: 13</text>
  <text x="280" y="320" font-size="12" font-family="Arial" fill="black">Costo: 18</text>
</svg>